# xmcd
#
# Track frame offsets:
#	150
#	26979
#	72722
#	90552
#	127441
#	187877
#	274374
#
# Disc length: 4274 seconds
#
# Revision: 1
# Processed by: cddbd v1.5.2PL0 Copyright (c) Steve Scherf et al.
# Submitted via: audiograbber 1.83.01
#
DISCID=7010b007
DTITLE=Grateful Dead - 79-09-06 Madison Square Garden, New York NY
DYEAR=1900
DGENRE=
TTITLE0=China Cat Sunflower
TTITLE1=I Know You Rider
TTITLE2=Easy To Love You
TTITLE3=Ramble On Rose
TTITLE4=Terrapin Station
TTITLE5=Playing In The Band
TTITLE6=Drums
EXTD=
EXTT0=
EXTT1=
EXTT2=
EXTT3=
EXTT4=
EXTT5=
EXTT6=
PLAYORDER=
